<?xml version="1.0" standalone="no"?>
<!DOCTYPE svg PUBLIC "-//W3C//DTD SVG 20010904//EN"
 "http://www.w3.org/TR/2001/REC-SVG-20010904/DTD/svg10.dtd">
<svg version="1.0" xmlns="http://www.w3.org/2000/svg"
 width="192.000000pt" height="192.000000pt" viewBox="0 0 192.000000 192.000000"
 preserveAspectRatio="xMidYMid meet">
<metadata>
Created by potrace 1.12, written by Peter Selinger 2001-2015
</metadata>
<g transform="translate(0.000000,192.000000) scale(0.100000,-0.100000)">
<path d="M450 1864 c-80 -14 -210 -48 -210 -55 0 -5 -6 -9 -14 -9 -15 0 -26
-21 -26 -49 0 -10 -12 -20 -32 -26 -68 -20 -108 -167 -111 -400 -2 -176 9
-295 29 -295 12 0 15 4 14 25 0 3 11 18 25 33 14 15 25 31 25 35 0 5 24 32 53
60 49 49 80 70 167 114 19 10 37 21 40 24 3 3 15 11 27 17 14 8 20 18 16 32
-3 11 -9 20 -14 20 -5 0 -9 9 -9 19 0 11 -3 21 -7 23 -5 2 -23 31 -40 66 -25
47 -29 64 -20 68 13 4 70 -22 143 -65 60 -36 72 -36 91 3 9 20 20 36 24 36 4
0 10 11 13 25 4 14 11 25 16 25 6 0 10 7 10 15 0 9 11 27 25 41 14 14 25 29
25 35 0 5 7 12 15 15 8 4 15 12 15 19 0 16 69 75 87 75 7 0 13 4 13 8 0 4 14
13 30 19 36 13 39 28 8 38 -26 8 -389 16 -428 9z"/>
<path d="M1077 1860 c-52 -9 -71 -20 -49 -27 29 -11 136 -89 146 -107 6 -11
23 -30 37 -43 15 -12 32 -37 40 -55 7 -18 19 -39 26 -46 7 -7 13 -20 13 -28 0
-8 4 -14 8 -14 5 0 16 -16 25 -36 19 -39 31 -39 91 -3 73 43 130 69 143 65 9
-4 5 -21 -20 -68 -17 -35 -35 -64 -39 -66 -5 -2 -8 -12 -8 -23 0 -10 -4 -19
-9 -19 -5 0 -11 -9 -14 -20 -4 -14 2 -24 16 -32 12 -6 24 -14 27 -17 3 -3 23
-15 44 -26 121 -61 206 -137 246 -219 13 -25 29 -46 36 -46 18 0 29 111 28
285 -2 225 -41 385 -100 415 -17 8 -37 28 -45 45 -31 60 -202 96 -447 94 -81
-1 -169 -5 -195 -9z"/>
<path d="M925 1766 c-18 -13 -19 -18 -7 -60 15 -59 15 -66 -3 -66 -8 0 -15 5
-15 10 0 6 -7 10 -15 10 -8 0 -15 7 -15 15 0 8 -8 15 -18 15 -10 0 -23 5 -29
11 -13 13 -73 3 -73 -12 0 -5 -7 -9 -15 -9 -8 0 -15 -7 -15 -15 0 -8 -4 -15
-10 -15 -5 0 -10 -7 -10 -15 0 -8 -7 -15 -15 -15 -8 0 -15 -9 -15 -20 0 -11
-4 -20 -8 -20 -4 0 -14 -16 -21 -35 -7 -19 -16 -35 -21 -35 -4 0 -11 -12 -15
-27 -4 -19 -2 -31 9 -39 13 -9 31 -3 91 27 42 22 85 39 96 39 10 0 19 4 19 10
0 12 101 70 112 64 4 -3 10 -27 14 -54 4 -28 10 -50 14 -50 4 0 10 22 14 48 3
27 9 52 12 55 6 6 63 -19 74 -32 9 -11 71 -41 85 -41 7 0 15 -3 17 -7 2 -5 31
-22 64 -39 46 -23 66 -28 82 -21 20 9 20 11 4 46 -9 20 -23 42 -29 49 -7 7
-13 20 -13 28 0 8 -4 14 -10 14 -5 0 -10 7 -10 15 0 8 -4 15 -10 15 -5 0 -10
11 -10 25 0 18 -5 25 -20 25 -11 0 -23 6 -26 14 -8 20 -48 28 -100 20 -34 -5
-44 -11 -44 -25 0 -14 -7 -19 -26 -19 -23 0 -25 3 -20 23 19 66 19 80 1 94
-24 17 -46 17 -70 -1z"/>
<path d="M848 1496 c-54 -15 -177 -68 -178 -77 0 -4 27 -18 60 -33 33 -15 60
-31 60 -37 0 -5 11 -9 24 -9 13 0 26 -3 28 -7 2 -5 22 -18 46 -31 l42 -23 0
84 c0 79 -14 148 -28 146 -4 0 -28 -6 -54 -13z"/>
<path d="M1008 1499 c-15 -8 -18 -26 -18 -115 l0 -106 34 21 c18 12 40 21 49
21 8 0 17 5 19 10 2 6 39 28 83 49 l80 39 -85 40 c-98 46 -138 56 -162 41z"/>
<path d="M420 1307 c-25 -12 -51 -28 -58 -34 -7 -7 -24 -16 -38 -19 -13 -3
-24 -12 -24 -20 0 -8 -7 -14 -15 -14 -8 0 -15 -4 -15 -10 0 -5 -6 -10 -13 -10
-21 0 -38 -62 -31 -113 6 -40 10 -47 29 -47 15 0 25 -8 28 -22 4 -12 5 -23 4
-25 -2 -1 -27 4 -56 12 -66 17 -81 12 -81 -29 0 -57 32 -69 108 -42 36 13 40
13 35 0 -3 -8 -9 -14 -14 -14 -5 0 -9 -9 -9 -20 0 -11 -6 -20 -14 -20 -17 0
-38 -77 -29 -110 9 -32 34 -60 55 -60 10 0 18 -7 18 -15 0 -8 9 -15 20 -15 11
0 20 -4 20 -10 0 -5 6 -10 14 -10 8 0 21 -6 28 -13 17 -16 64 -37 83 -37 8 0
15 8 15 19 0 22 -41 125 -52 129 -4 2 -8 12 -8 23 0 10 -4 19 -10 19 -5 0 -10
9 -10 20 0 11 -4 20 -10 20 -5 0 -14 18 -20 40 -6 22 -15 40 -21 40 -26 0 1
25 31 30 41 6 53 30 15 30 -14 0 -33 7 -42 16 -14 14 -14 17 4 37 11 12 23 34
27 49 3 15 13 33 21 42 8 8 15 21 15 29 0 9 3 17 8 19 11 5 52 111 52 136 0
27 -3 27 -60 -1z"/>
<path d="M1440 1308 c0 -25 41 -131 53 -136 4 -2 7 -12 7 -23 0 -10 4 -19 8
-19 9 0 52 -89 52 -107 0 -6 6 -14 13 -16 19 -8 -13 -27 -46 -27 -40 0 -29
-24 13 -30 30 -5 57 -30 31 -30 -6 0 -15 -18 -21 -40 -6 -22 -15 -40 -20 -40
-6 0 -10 -9 -10 -20 0 -11 -4 -20 -10 -20 -5 0 -10 -9 -10 -19 0 -11 -3 -21
-7 -23 -11 -4 -53 -109 -53 -131 0 -9 7 -17 15 -17 19 0 66 21 83 37 7 7 20
13 28 13 8 0 14 5 14 10 0 6 7 10 15 10 8 0 15 4 15 9 0 5 9 11 19 14 11 2 31
23 45 44 22 34 26 47 20 82 -4 25 -12 41 -20 41 -8 0 -14 10 -14 25 0 15 -6
25 -14 25 -8 0 -16 6 -19 14 -5 13 -1 13 35 0 74 -26 108 -14 108 37 0 39 -22
54 -61 40 -18 -6 -38 -11 -45 -11 -22 0 -16 40 11 72 26 31 29 45 19 97 -5 21
-12 31 -25 31 -12 0 -19 7 -19 20 0 15 -7 20 -25 20 -14 0 -25 5 -25 10 0 6
-6 10 -14 10 -8 0 -21 6 -28 13 -7 7 -28 19 -45 26 -18 7 -33 17 -33 22 0 5
-9 9 -20 9 -14 0 -20 -7 -20 -22z"/>
<path d="M1170 1287 c-43 -21 -70 -41 -70 -54 0 -7 -4 -13 -10 -13 -5 0 -11
-10 -11 -22 -1 -17 -2 -19 -6 -5 -2 9 -13 17 -24 17 -10 0 -19 4 -19 9 0 5
-11 12 -25 15 -14 4 -25 11 -25 16 0 6 -9 10 -20 10 -11 0 -20 -4 -20 -9 0 -5
-13 -14 -30 -20 -16 -5 -30 -15 -30 -20 0 -6 -6 -11 -14 -11 -8 0 -16 -6 -19
-12 -2 -7 -12 4 -21 24 -19 40 -84 78 -134 78 -50 0 -82 -68 -47 -103 8 -8 11
-17 8 -21 -4 -4 10 -22 30 -41 35 -33 52 -85 27 -85 -5 0 -10 -6 -10 -14 0 -8
-9 -18 -20 -21 -11 -3 -20 -15 -20 -26 0 -10 9 -28 20 -39 11 -11 20 -29 20
-40 0 -11 6 -20 14 -20 26 0 26 -28 0 -34 -13 -4 -24 -11 -24 -16 0 -6 -6 -10
-13 -10 -34 0 -59 -160 -27 -180 31 -19 118 7 166 52 14 13 20 27 17 46 -4 25
-3 26 10 10 8 -10 19 -18 26 -18 6 0 11 -4 11 -10 0 -5 7 -10 15 -10 8 0 15
-4 15 -10 0 -5 7 -10 15 -10 8 0 15 -4 15 -10 0 -17 30 -11 52 10 12 11 28 20
35 20 7 0 13 5 13 10 0 6 9 10 20 10 13 0 20 -7 20 -19 0 -11 9 -23 20 -26 11
-3 20 -13 20 -21 0 -14 20 -17 99 -17 43 0 72 35 66 78 -2 17 -4 40 -4 53 -1
12 -7 22 -14 22 -8 0 -20 11 -27 24 -7 15 -23 26 -39 28 l-26 3 21 20 c11 11
25 32 32 48 6 15 16 27 22 27 18 0 11 39 -10 52 -11 7 -20 18 -20 25 0 7 -4
13 -10 13 -5 0 -10 11 -10 24 0 17 8 28 28 37 26 11 43 41 59 106 9 36 -4 67
-34 81 -32 14 -50 14 -83 -1z m-239 -119 c24 -26 27 -128 5 -128 -22 0 -103
93 -86 98 19 7 40 28 40 41 0 18 21 12 41 -11z m115 0 c24 -24 32 -48 14 -48
-5 0 -10 -7 -10 -15 0 -9 -7 -18 -15 -21 -8 -3 -17 -14 -20 -25 -4 -10 -15
-19 -26 -19 -16 0 -19 7 -19 55 0 38 5 61 18 74 23 25 30 25 58 -1z m-198
-131 c23 -24 39 -46 36 -50 -13 -12 -108 -7 -126 7 -24 17 -23 43 1 51 11 3
22 12 25 20 8 23 18 18 64 -28z m313 12 l30 -31 -20 -19 c-15 -14 -35 -19 -76
-19 -54 0 -56 1 -49 23 7 24 22 37 42 37 6 0 12 6 12 14 0 12 9 20 28 25 1 1
16 -13 33 -30z m-268 -105 c9 -10 -32 -43 -61 -51 -13 -3 -27 -14 -31 -25 -7
-18 -8 -18 -34 4 -35 30 -36 58 -2 58 14 0 25 5 25 10 0 11 93 14 103 4z m267
-8 c0 -8 5 -16 11 -18 5 -2 7 -11 4 -20 -8 -20 -55 -53 -55 -38 0 5 -6 10 -12
10 -7 0 -24 12 -37 25 -13 14 -27 25 -32 25 -5 0 -9 7 -9 15 0 12 14 15 65 15
49 0 65 -3 65 -14z m-212 -92 c5 -90 -24 -128 -67 -85 -30 30 -35 57 -12 73
11 8 25 26 32 41 20 45 43 30 47 -29z m81 6 c12 -8 21 -20 21 -27 0 -7 5 -13
10 -13 18 0 11 -22 -16 -46 -30 -28 -31 -29 -51 -8 -22 22 -31 123 -12 135 9
5 16 3 20 -9 4 -9 16 -24 28 -32z"/>
<path d="M458 1156 c-44 -109 -46 -131 -17 -146 28 -16 199 -26 199 -12 0 5
-17 41 -39 79 -21 37 -49 92 -61 121 -12 28 -28 52 -34 52 -6 0 -28 -43 -48
-94z"/>
<path d="M1366 1168 c-22 -46 -52 -102 -68 -126 -15 -24 -28 -46 -28 -49 0 -8
208 5 222 13 18 11 2 86 -35 167 -20 42 -39 77 -44 77 -5 0 -26 -37 -47 -82z"/>
<path d="M468 933 c-47 -4 -48 -5 -48 -37 0 -34 71 -208 87 -213 9 -3 43 59
43 78 0 5 20 44 45 87 25 42 45 80 45 84 0 8 -79 8 -172 1z"/>
<path d="M1290 904 c13 -21 29 -48 34 -59 6 -11 16 -27 22 -35 6 -8 18 -35 27
-60 26 -68 32 -76 49 -59 21 22 78 165 78 198 0 37 -11 41 -134 48 l-100 6 24
-39z"/>
<path d="M66 853 c-37 -293 12 -634 94 -653 15 -3 26 -14 28 -26 6 -41 120
-86 268 -105 62 -7 148 -10 243 -5 207 9 248 19 184 45 -59 24 -143 85 -143
103 0 6 -10 18 -22 28 -13 10 -32 35 -43 56 -11 22 -26 45 -32 52 -7 7 -13 20
-13 28 0 8 -4 14 -10 14 -5 0 -13 12 -16 28 -4 15 -12 30 -18 34 -16 11 -56
10 -56 -1 0 -5 -17 -17 -37 -28 -21 -10 -57 -29 -80 -43 -24 -13 -45 -22 -47
-19 -6 6 17 79 26 79 3 0 9 13 13 30 4 17 11 30 16 30 5 0 9 9 9 19 0 11 4 21
9 23 4 2 12 13 15 26 6 16 3 22 -8 22 -9 0 -16 5 -16 10 0 6 -6 10 -14 10 -8
0 -21 6 -28 13 -7 6 -29 20 -48 30 -75 38 -88 48 -104 72 -9 14 -22 25 -29 25
-14 0 -54 49 -88 107 -13 24 -29 43 -35 43 -6 0 -14 -21 -18 -47z"/>
<path d="M1819 888 c-1 -7 -1 -16 0 -20 0 -5 -3 -8 -9 -8 -5 0 -17 -15 -26
-32 -23 -45 -65 -88 -86 -88 -10 0 -18 -7 -18 -15 0 -8 -5 -15 -10 -15 -6 0
-23 -11 -37 -25 -15 -13 -41 -30 -57 -37 -17 -7 -37 -18 -44 -25 -7 -7 -20
-13 -28 -13 -8 0 -14 -4 -14 -10 0 -5 -7 -10 -16 -10 -11 0 -14 -6 -8 -22 3
-13 11 -24 15 -26 5 -2 9 -12 9 -23 0 -10 4 -19 9 -19 5 0 12 -13 16 -30 4
-17 11 -30 16 -30 5 0 9 -7 9 -16 0 -8 7 -22 16 -31 11 -12 12 -19 4 -27 -8
-8 -19 -6 -43 8 -152 88 -197 101 -197 56 0 -10 -6 -25 -14 -32 -7 -8 -17 -24
-20 -36 -4 -12 -12 -22 -17 -22 -5 0 -9 -7 -9 -15 0 -8 -4 -15 -10 -15 -5 0
-10 -7 -10 -16 0 -8 -13 -29 -30 -46 -16 -16 -30 -33 -30 -38 0 -4 -17 -21
-37 -36 -20 -16 -45 -37 -55 -47 -10 -9 -26 -17 -35 -17 -21 0 -50 -17 -43
-24 3 -2 46 -10 95 -17 227 -30 590 19 611 84 3 9 10 17 15 17 5 0 9 6 9 14 0
7 13 19 29 26 55 22 95 196 95 415 1 174 -10 275 -30 275 -8 0 -15 -6 -15 -12z"/>
<path d="M872 620 c-23 -17 -49 -30 -56 -30 -8 0 -19 -7 -26 -15 -7 -8 -16
-15 -20 -15 -4 0 -29 -10 -56 -22 -46 -20 -47 -22 -26 -31 12 -6 22 -14 22
-19 0 -4 6 -8 13 -8 7 0 38 -12 67 -26 61 -30 117 -35 131 -14 10 18 12 210 2
210 -5 0 -27 -14 -51 -30z"/>
<path d="M990 556 c0 -76 3 -98 18 -117 l19 -22 69 24 c38 13 89 36 114 51 41
26 43 28 23 34 -13 4 -23 10 -23 14 0 4 -13 10 -29 13 -16 3 -63 27 -106 52
-42 25 -79 45 -81 45 -2 0 -4 -42 -4 -94z"/>
<path d="M1245 474 c-22 -13 -50 -24 -62 -24 -13 0 -23 -4 -23 -10 0 -5 -15
-16 -33 -24 -18 -7 -52 -25 -75 -40 -60 -38 -70 -35 -78 24 -4 28 -10 50 -14
50 -4 0 -10 -22 -14 -50 -5 -35 -11 -50 -22 -50 -14 0 -63 27 -74 41 -3 3 -22
12 -44 20 -21 8 -41 20 -43 26 -3 7 -14 13 -24 13 -10 0 -38 10 -63 21 -54 27
-81 20 -72 -17 4 -15 14 -33 21 -41 8 -8 18 -25 21 -39 3 -13 10 -24 15 -24 5
0 9 -7 9 -15 0 -8 5 -15 10 -15 6 0 10 -9 10 -20 0 -11 8 -23 18 -27 9 -3 26
-14 37 -24 30 -27 69 -33 88 -15 8 9 23 16 31 16 9 0 16 6 16 14 0 7 11 16 26
19 24 4 25 3 18 -27 -14 -60 -11 -80 18 -94 21 -10 33 -10 49 -1 18 9 20 17
16 47 -3 21 -9 47 -12 59 -6 19 -4 21 16 16 21 -6 43 -21 76 -52 12 -12 21
-12 47 -3 18 7 39 12 48 12 18 0 48 41 48 65 0 8 4 15 9 15 5 0 12 11 15 25 4
14 11 25 16 25 6 0 10 7 10 15 0 8 4 15 8 15 7 0 32 57 32 73 0 3 -8 10 -17
15 -13 6 -30 2 -58 -14z"/>
</g>
</svg>
